<svg width="377" height="363" viewBox="0 0 377 363" fill="none" xmlns="http://www.w3.org/2000/svg">
<path d="M227.297 1.0518L227.355 0.5H226.8H148.4H147.842L147.903 1.05436L164.622 153.916L13.3367 110.919L12.791 110.764L12.7057 111.325L1.50569 184.925L1.42511 185.454L1.95893 185.498L146.663 197.424L53.5982 323.102L53.2517 323.57L53.7665 323.842L124.967 361.442L125.441 361.693L125.658 361.201L186.822 222.191L254.35 361.218L254.579 361.69L255.04 361.439L323.84 323.839L324.347 323.561L323.999 323.099L229.346 197.425L375.641 185.498L376.175 185.455L376.094 184.925L364.894 111.325L364.809 110.766L364.265 110.919L211.374 153.919L227.297 1.0518Z" stroke="#0D0D0D"/>
</svg>
