<svg width="75" height="75" viewBox="0 0 75 75" fill="none" xmlns="http://www.w3.org/2000/svg">
<path d="M14.0196 1H61.5027C68.7017 1 74.5222 6.96975 74.5222 14.3534V61.1688C74.5222 68.5525 68.7017 74.5222 61.5027 74.5222H14.0196C6.82051 74.5222 1 68.5525 1 61.1688V14.3534C1 6.96975 6.82051 1 14.0196 1Z" fill="#00005B"/>
<path d="M30.5312 43.8885H19.1352L16.807 51.1182C16.7458 51.3939 16.5007 51.5777 16.225 51.5471H10.4658C10.1288 51.5471 10.0369 51.3633 10.1288 50.9957L19.993 22.7202C20.0849 22.4139 20.1768 22.1382 20.2993 21.7706C20.4219 21.1273 20.4832 20.4533 20.4832 19.7794C20.4525 19.6262 20.5751 19.473 20.7282 19.4424H28.6625C28.8769 19.4424 29.0301 19.5343 29.0607 19.6875L40.2422 50.9344C40.3342 51.2714 40.2422 51.4245 39.9359 51.4245H33.5333C33.3189 51.4552 33.1045 51.302 33.0432 51.0876L30.5312 43.7353V43.8885ZM20.912 37.7923H28.6931C28.5093 37.149 28.2643 36.3831 27.9885 35.5866C27.7128 34.7595 27.4371 33.8711 27.1614 32.9521C26.8551 32.0024 26.5794 31.0834 26.273 30.1337C25.9667 29.1841 25.691 28.2957 25.4459 27.4073C25.2008 26.5495 24.9864 25.753 24.7719 25.0178H24.7107C24.435 26.3351 24.098 27.6524 23.6691 28.9696C23.2096 30.4401 22.7501 31.9718 22.2599 33.5035C21.8617 35.0659 21.3715 36.5057 20.912 37.7923Z" fill="#9999FF"/>
<path d="M58.2858 41.1314H48.5748C48.6973 42.0811 49.0036 43.0308 49.5244 43.8579C50.0758 44.685 50.8417 45.3283 51.7607 45.6959C52.9861 46.2167 54.334 46.4924 55.6819 46.4618C56.7541 46.4312 57.8263 46.3393 58.8679 46.1248C59.8175 46.0023 60.7366 45.7572 61.5943 45.4202C61.7475 45.2977 61.8394 45.359 61.8394 45.6653V50.3523C61.8394 50.4749 61.8088 50.5974 61.7781 50.72C61.7169 50.8119 61.6556 50.8731 61.5637 50.9344C60.5834 51.3633 59.5725 51.6696 58.5003 51.8534C57.0604 52.1291 55.6206 52.2517 54.1502 52.221C51.822 52.221 49.8614 51.8534 48.2684 51.1488C46.7673 50.5055 45.4501 49.4946 44.4085 48.2386C43.4282 47.0438 42.7236 45.6959 42.2947 44.2255C41.8659 42.7857 41.6514 41.2846 41.6514 39.7529C41.6514 38.0986 41.8965 36.475 42.4173 34.882C42.9074 33.3503 43.6733 31.9412 44.7148 30.6852C45.7258 29.4598 46.9818 28.4795 48.4216 27.7749C49.8614 27.0703 51.5769 26.8252 53.5375 26.8252C55.1611 26.7946 56.7847 27.1009 58.2858 27.7749C59.5418 28.3263 60.6447 29.1534 61.5024 30.2256C62.2989 31.2672 62.9422 32.4313 63.3405 33.7179C63.7387 34.9433 63.9225 36.1993 63.9225 37.4553C63.9225 38.1905 63.8919 38.8339 63.8613 39.4159C63.8 39.998 63.7693 40.4268 63.7387 40.7026C63.7081 40.917 63.5243 41.1008 63.3098 41.1008C63.126 41.1008 62.7891 41.1314 62.2989 41.1621C61.8088 41.2233 61.2267 41.254 60.5221 41.254C59.8175 41.254 59.0823 41.1314 58.2858 41.1314ZM48.5748 36.6588H55.0386C55.8351 36.6588 56.4171 36.6588 56.7847 36.6282C57.0298 36.5976 57.2749 36.5363 57.4893 36.3831V36.0768C57.4893 35.6785 57.4281 35.3109 57.3055 34.9433C56.7541 33.2278 55.1305 32.0637 53.3231 32.125C51.6382 32.0331 50.0452 32.9215 49.2487 34.4532C48.8811 35.1578 48.6667 35.893 48.5748 36.6588Z" fill="#9999FF"/>
</svg>
