<svg width="75" height="75" viewBox="0 0 75 75" fill="none" xmlns="http://www.w3.org/2000/svg">
<path d="M56.4202 54.9405C55.5005 54.9405 54.5587 54.8743 53.6324 54.7364C45.8676 53.6282 40.6756 48.0515 37.7673 43.7646C34.8499 48.0515 29.6582 53.6337 21.8969 54.7404C20.9733 54.8727 20.0415 54.939 19.1086 54.9389C14.2811 54.9389 9.7492 53.1421 6.34033 49.8798C2.89898 46.5905 1 42.1766 1 37.47C1 32.7574 2.89891 28.3496 6.34532 25.0543C9.75091 21.7915 14.2862 20 19.1157 20C20.0361 20 20.973 20.0661 21.8961 20.1983C29.6577 21.3052 34.8491 26.8826 37.7668 31.1702C40.6756 26.8826 45.8673 21.3068 53.6314 20.1983C54.5577 20.0656 55.4945 20 56.4149 20C61.2424 20 65.7774 21.7961 69.1829 25.0543C72.6275 28.3496 74.5222 32.7574 74.5222 37.47C74.5222 42.1766 72.6324 46.5905 69.1878 49.8798C65.7762 53.1421 61.248 54.9405 56.4202 54.9405ZM41.2054 37.4717C42.7218 40.3598 47.1952 47.5663 54.5074 48.6136C55.1475 48.7017 55.7919 48.7506 56.4197 48.7506C62.9879 48.7506 68.3346 43.6917 68.3346 37.47C68.3346 31.2484 62.9892 26.1895 56.415 26.1895C55.7871 26.1895 55.1429 26.2343 54.5088 26.3264C47.1953 27.3712 42.7219 34.5777 41.2054 37.4717ZM19.1156 26.1911C12.5386 26.1911 7.19107 31.2498 7.19107 37.4717C7.19107 43.6922 12.5364 48.7523 19.1074 48.7523C19.7382 48.7523 20.3826 48.7033 21.0226 48.6153C28.335 47.5682 32.8071 40.3657 34.3244 37.4735C32.8112 34.5853 28.335 27.3728 21.0226 26.3315C20.3901 26.236 19.744 26.1911 19.1156 26.1911Z" fill="#1A999E"/>
<path d="M14.1265 35.7632H25.0012V39.2674H14.1265V35.7632ZM61.3028 35.7632H57.6211V32.0762H54.1051V35.7632H50.4251V39.2674H54.1051V42.9537H57.6211V39.2674H61.3028V35.7632Z" fill="#1A999E"/>
</svg>
