<svg width="75" height="75" viewBox="0 0 75 75" fill="none" xmlns="http://www.w3.org/2000/svg">
<path d="M27.0301 63.2304C23.6959 60.1647 22.7225 53.7233 24.1117 49.0566C26.5203 51.9989 29.8578 52.9309 33.3147 53.457C38.6514 54.2689 43.8925 53.9652 48.8501 51.5118C49.4172 51.2309 49.9413 50.8574 50.561 50.4791C51.0261 51.8365 51.1472 53.2069 50.9848 54.6017C50.5897 57.9986 48.909 60.6226 46.2359 62.6117C45.1669 63.4074 44.0358 64.1186 42.9319 64.8687C39.5403 67.1745 38.6227 69.878 39.8971 73.8104C39.9274 73.9068 39.9545 74.0026 40.023 74.2364C38.2913 73.4566 37.0264 72.3215 36.0627 70.8292C35.0447 69.2545 34.5605 67.5122 34.5349 65.627C34.5222 64.7096 34.5222 63.784 34.3995 62.8796C34.1 60.6746 33.0709 59.6873 31.1322 59.6305C29.1425 59.5721 27.5686 60.8093 27.1512 62.7578C27.1193 62.9072 27.0731 63.055 27.0269 63.2287L27.0301 63.2304Z" fill="white"/>
<path d="M27.0301 63.2304C23.6959 60.1647 22.7225 53.7233 24.1117 49.0566C26.5203 51.9989 29.8578 52.9309 33.3147 53.457C38.6514 54.2689 43.8925 53.9652 48.8501 51.5118C49.4172 51.2309 49.9413 50.8574 50.561 50.4791C51.0261 51.8365 51.1472 53.2069 50.9848 54.6017C50.5897 57.9986 48.909 60.6226 46.2359 62.6117C45.1669 63.4074 44.0358 64.1186 42.9319 64.8687C39.5403 67.1745 38.6227 69.878 39.8971 73.8104C39.9274 73.9068 39.9545 74.0026 40.023 74.2364C38.2913 73.4566 37.0264 72.3215 36.0627 70.8292C35.0447 69.2545 34.5605 67.5122 34.5349 65.627C34.5222 64.7096 34.5222 63.784 34.3995 62.8796C34.1 60.6746 33.0709 59.6873 31.1322 59.6305C29.1425 59.5721 27.5686 60.8093 27.1512 62.7578C27.1193 62.9072 27.0731 63.055 27.0269 63.2287L27.0301 63.2304Z" fill="url(#paint0_linear_124_3693)"/>
<path d="M8 48.2788C8 48.2788 17.8732 43.4411 27.7741 43.4411L35.2389 20.2036C35.5184 19.0798 36.3344 18.3161 37.2557 18.3161C38.1769 18.3161 38.9929 19.0798 39.2724 20.2036L46.7374 43.4411C58.4634 43.4411 66.5114 48.2788 66.5114 48.2788C66.5114 48.2788 49.7409 2.32583 49.7081 2.23363C49.2268 0.875014 48.4142 0 47.3187 0H27.1944C26.0989 0 25.3191 0.875014 24.8051 2.23363C24.7688 2.32409 8 48.2788 8 48.2788Z" fill="#0D0D0D"/>
<defs>
<linearGradient id="paint0_linear_124_3693" x1="23.4991" y1="74.2364" x2="55.762" y2="59.0811" gradientUnits="userSpaceOnUse">
<stop stop-color="#D83333"/>
<stop offset="1" stop-color="#F041FF"/>
</linearGradient>
</defs>
</svg>
