<svg width="75" height="75" viewBox="0 0 75 75" fill="none" xmlns="http://www.w3.org/2000/svg">
<path d="M38 37.5C38 35.5109 38.7902 33.6032 40.1967 32.1967C41.6032 30.7902 43.5109 30 45.5 30C47.4891 30 49.3968 30.7902 50.8033 32.1967C52.2098 33.6032 53 35.5109 53 37.5C53 39.4891 52.2098 41.3968 50.8033 42.8033C49.3968 44.2098 47.4891 45 45.5 45C43.5109 45 41.6032 44.2098 40.1967 42.8033C38.7902 41.3968 38 39.4891 38 37.5Z" fill="#1ABCFE"/>
<path d="M23 52.5C23 50.5109 23.7902 48.6032 25.1967 47.1967C26.6032 45.7902 28.5109 45 30.5 45H38V52.5C38 54.4891 37.2098 56.3968 35.8033 57.8033C34.3968 59.2098 32.4891 60 30.5 60C28.5109 60 26.6032 59.2098 25.1967 57.8033C23.7902 56.3968 23 54.4891 23 52.5Z" fill="#0ACF83"/>
<path d="M38 15V30H45.5C47.4891 30 49.3968 29.2098 50.8033 27.8033C52.2098 26.3968 53 24.4891 53 22.5C53 20.5109 52.2098 18.6032 50.8033 17.1967C49.3968 15.7902 47.4891 15 45.5 15H38Z" fill="#FF7262"/>
<path d="M23 22.5C23 24.4891 23.7902 26.3968 25.1967 27.8033C26.6032 29.2098 28.5109 30 30.5 30H38V15H30.5C28.5109 15 26.6032 15.7902 25.1967 17.1967C23.7902 18.6032 23 20.5109 23 22.5Z" fill="#F24E1E"/>
<path d="M23 37.5C23 39.4891 23.7902 41.3968 25.1967 42.8033C26.6032 44.2098 28.5109 45 30.5 45H38V30H30.5C28.5109 30 26.6032 30.7902 25.1967 32.1967C23.7902 33.6032 23 35.5109 23 37.5Z" fill="#A259FF"/>
</svg>
