<svg width="75" height="75" viewBox="0 0 75 75" fill="none" xmlns="http://www.w3.org/2000/svg">
<path d="M38.4316 31.7841C38.4274 31.9121 38.3736 32.0334 38.2816 32.1224C38.1895 32.2114 38.0665 32.2611 37.9385 32.2611H32.8576C32.5247 32.2611 32.2466 31.9911 32.2466 31.6626C32.2466 30.1805 31.7336 29.4588 30.6844 29.4588C29.6351 29.4588 28.9584 30.1031 28.9386 31.2289C28.9161 32.4843 29.6261 33.6253 31.6473 35.5853C34.3083 38.0816 35.3746 40.2927 35.3233 43.2156C35.2397 47.9418 32.0261 50.997 27.1361 50.997C24.6388 50.997 22.7311 50.3293 21.4622 49.0118C20.1744 47.6737 19.5841 45.7101 19.7074 43.176C19.7116 43.0478 19.7655 42.9264 19.8578 42.8374C19.95 42.7483 20.0732 42.6987 20.2014 42.699H25.4568C25.5301 42.7002 25.6021 42.7176 25.6678 42.7499C25.7334 42.7823 25.7911 42.8288 25.8366 42.8862C25.8763 42.9336 25.9054 42.989 25.9218 43.0486C25.9383 43.1082 25.9418 43.1707 25.932 43.2317C25.8735 44.146 26.0328 44.8291 26.3927 45.207C26.6231 45.4518 26.9444 45.576 27.3448 45.576C28.3158 45.576 28.8846 44.8903 28.9062 43.6952C28.9242 42.6621 28.5975 41.7568 26.8175 39.9255C24.5183 37.6794 22.4566 35.3585 22.5205 31.7094C22.5583 29.5929 23.3988 27.6572 24.8881 26.2587C26.4629 24.7811 28.6164 24 31.1163 24C33.6207 24.018 35.5186 24.7325 36.7578 26.1238C37.9313 27.4421 38.4955 29.3463 38.4334 31.7841H38.4316Z" fill="#00E559"/>
<path d="M54.1796 50.1078L54.2129 24.9709C54.2139 24.9079 54.2023 24.8454 54.1787 24.787C54.1552 24.7286 54.1202 24.6755 54.0759 24.6308C54.0315 24.5862 53.9787 24.5508 53.9205 24.5268C53.8623 24.5028 53.7998 24.4907 53.7369 24.4912H45.8736C45.609 24.4912 45.4929 24.7189 45.4173 24.8692L34.0318 49.9539V49.9584L34.0273 49.9647C33.9013 50.2733 34.1407 50.6036 34.4745 50.6036H39.9711C40.2681 50.6036 40.4652 50.5136 40.5615 50.3264L41.653 47.7032C41.7871 47.3532 41.8123 47.3208 42.1939 47.3208H47.4457C47.811 47.3208 47.8182 47.328 47.8128 47.6852L47.695 50.124C47.694 50.1868 47.7056 50.2493 47.7291 50.3076C47.7526 50.3659 47.7875 50.419 47.8317 50.4637C47.876 50.5083 47.9287 50.5437 47.9868 50.5678C48.0449 50.5918 48.1072 50.604 48.1701 50.6036H53.7234C53.7921 50.6045 53.8602 50.5902 53.9229 50.5619C53.9855 50.5336 54.0412 50.492 54.086 50.4398C54.1247 50.3945 54.1531 50.3414 54.1693 50.2841C54.1854 50.2267 54.189 50.1666 54.1796 50.1078ZM44.4517 41.7153C44.4103 41.7155 44.3689 41.714 44.3275 41.7108C44.3083 41.7092 44.2896 41.7034 44.2728 41.6938C44.256 41.6842 44.2416 41.6711 44.2304 41.6553C44.2193 41.6395 44.2117 41.6215 44.2083 41.6025C44.2048 41.5834 44.2056 41.5639 44.2105 41.5452C44.2213 41.5092 44.2366 41.4597 44.2591 41.3994L48.1971 31.6553C48.2325 31.5592 48.2734 31.4651 48.3195 31.3737C48.3834 31.2423 48.4608 31.2333 48.4851 31.3305C48.5058 31.4115 48.0333 41.3355 48.0333 41.3355C47.9964 41.7072 47.9793 41.7225 47.6131 41.7531L44.4553 41.7171H44.4481L44.4508 41.7153L44.4517 41.7153Z" fill="#00E559"/>
<path d="M65.3818 24.491H61.2072C60.9867 24.491 60.7393 24.608 60.6817 24.8707L54.8719 50.0949C54.8592 50.1518 54.8598 50.2108 54.8735 50.2675C54.8872 50.3241 54.9138 50.3768 54.9511 50.4216C54.9995 50.4786 55.0598 50.5244 55.1277 50.5558C55.1956 50.5872 55.2696 50.6034 55.3444 50.6034H60.562C60.8428 50.6034 61.0344 50.4657 61.0866 50.2272L61.7202 47.3682C61.7652 47.145 61.6878 46.9723 61.488 46.8679C61.3942 46.8196 61.3006 46.771 61.2072 46.7221L60.3028 46.2514L59.4029 45.7817L59.0547 45.6008C59.0263 45.5867 59.0026 45.5648 58.9862 45.5378C58.9698 45.5107 58.9614 45.4795 58.962 45.4478C58.9631 45.401 58.9826 45.3564 59.0163 45.3238C59.05 45.2912 59.0951 45.273 59.1419 45.2733L62.0009 45.2859C62.8558 45.2904 63.7116 45.2301 64.553 45.0753C70.4744 43.9819 74.4069 39.2394 74.5203 32.7863C74.6175 27.2789 71.5435 24.4883 65.3863 24.4883L65.3818 24.491ZM63.9609 39.5013H63.8493C63.5982 39.5013 63.5541 39.4743 63.5469 39.4653C63.5424 39.459 65.1956 32.2004 65.1965 32.1905C65.2388 31.9808 65.237 31.8603 65.1074 31.7892C64.9418 31.6974 62.5283 30.4249 62.5283 30.4249C62.5002 30.4102 62.4768 30.3878 62.4607 30.3605C62.4447 30.3331 62.4366 30.3018 62.4374 30.2701C62.4385 30.2239 62.4577 30.18 62.4909 30.1477C62.524 30.1154 62.5684 30.0973 62.6147 30.0974H66.4311C67.619 30.1334 68.2813 31.1961 68.2498 33.0112C68.1949 36.1528 66.7011 39.3915 63.9609 39.5022V39.5013Z" fill="#00E559"/>
<path d="M22.4269 36.6708V36.6825L21.4595 40.8814C21.4073 41.119 21.1698 41.2927 20.8962 41.2927H19.7272C19.6851 41.2929 19.6441 41.3066 19.6104 41.3319C19.5767 41.3572 19.552 41.3927 19.54 41.4331C18.462 45.0902 17.0023 47.6037 15.0747 49.1128C13.4351 50.3979 11.4139 50.9972 8.71335 50.9972C6.28722 50.9972 4.65121 50.217 3.26356 48.6763C1.42957 46.6408 0.671852 43.3075 1.1308 39.2922C1.95871 31.7537 5.86877 24.1469 13.3973 24.1469C15.6876 24.1271 17.4856 24.8335 18.7364 26.2437C20.0593 27.7357 20.7306 29.9818 20.7342 32.9227C20.7309 33.0516 20.6775 33.1742 20.5852 33.2643C20.4929 33.3543 20.3691 33.4049 20.2402 33.4051H14.7238C14.6271 33.4021 14.5353 33.3622 14.4671 33.2935C14.399 33.2249 14.3598 33.1328 14.3575 33.0361C14.3125 31.0023 13.7096 30.0124 12.5109 30.0124C10.3962 30.0124 9.1489 32.8831 8.48748 34.4741C7.56328 36.6969 7.09263 39.1113 7.18532 41.5158C7.22942 42.6353 7.4094 44.2092 8.47218 44.8617C9.41437 45.4394 10.7588 45.056 11.5732 44.4162C12.3867 43.7755 13.0419 42.6677 13.3172 41.6571C13.3559 41.5167 13.3586 41.4079 13.3217 41.3593C13.283 41.3089 13.176 41.2972 13.0941 41.2972H11.6776C11.6026 41.2974 11.5285 41.2813 11.4604 41.2499C11.3924 41.2185 11.332 41.1726 11.2835 41.1154C11.2463 41.0708 11.2198 41.0182 11.2062 40.9617C11.1927 40.9052 11.1923 40.8463 11.2052 40.7896L12.1735 36.5835C12.2212 36.3684 12.4164 36.2055 12.6567 36.1767V36.1659H21.9527C21.9743 36.1659 21.9968 36.1659 22.0175 36.1704C22.2586 36.2019 22.4287 36.426 22.4242 36.6708H22.4269Z" fill="#00E559"/>
</svg>
