<svg width="75" height="75" viewBox="0 0 75 75" fill="none" xmlns="http://www.w3.org/2000/svg">
<path d="M13.1498 0H61.1077C68.3787 0 74.2574 6.02945 74.2574 13.4869V60.7705C74.2574 68.228 68.3787 74.2574 61.1077 74.2574H13.1498C5.87871 74.2574 0 68.228 0 60.7705V13.4869C0 6.02945 5.87871 0 13.1498 0Z" fill="#330000"/>
<path d="M35.8913 43.3173H24.3814L22.0299 50.5883C21.968 50.8668 21.7205 51.0524 21.4421 51.0215H15.6252C15.2849 51.0215 15.1921 50.8358 15.2849 50.4645L25.2477 21.7826C25.3406 21.4732 25.4334 21.1329 25.5571 20.7616C25.6809 20.1118 25.7428 19.4311 25.7428 18.7504C25.7119 18.5957 25.8356 18.441 25.9903 18.4101H34.0039C34.2515 18.4101 34.3752 18.5029 34.4062 18.6576L45.6995 50.5264C45.7923 50.8668 45.6995 51.0215 45.3901 51.0215H38.9235C38.7069 51.0524 38.4903 50.8977 38.4284 50.6811L35.8913 43.3173ZM26.176 37.0363H34.0349C33.8492 36.3866 33.6017 35.613 33.3232 34.8086C33.0448 33.9732 32.7663 33.0759 32.4878 32.1477C32.1784 31.1885 31.9 30.2603 31.5906 29.3012C31.2812 28.342 31.0027 27.4447 30.7552 26.5475C30.5076 25.6811 30.2911 24.8767 30.0745 24.1341H30.0126C29.7341 25.4645 29.3938 26.795 28.9606 28.1254C28.4965 29.6106 28.0324 31.1576 27.5373 32.7046C27.1042 34.2826 26.6401 35.7368 26.176 37.0363ZM52.5992 23.8247C51.5782 23.8556 50.5881 23.4534 49.8455 22.7418C49.1339 21.9682 48.7626 20.9472 48.7935 19.8952C48.7626 18.8432 49.1648 17.8531 49.9074 17.1415C50.65 16.4299 51.6401 16.0586 52.6611 16.0586C53.8678 16.0586 54.796 16.4299 55.4767 17.1415C56.1574 17.8841 56.5287 18.8742 56.4977 19.8952C56.5287 20.9472 56.1574 21.9682 55.4148 22.7418C54.7032 23.4843 53.6512 23.8866 52.5992 23.8247ZM49.1339 50.6811V26.8569C49.1339 26.5475 49.2576 26.4237 49.5361 26.4237H55.6623C55.9408 26.4237 56.0646 26.5784 56.0646 26.8569V50.6811C56.0646 51.0215 55.9408 51.1762 55.6623 51.1762H49.598C49.2886 51.1762 49.1339 50.9905 49.1339 50.6811Z" fill="#FF9A00"/>
</svg>
