<svg width="75" height="75" viewBox="0 0 75 75" fill="none" xmlns="http://www.w3.org/2000/svg">
<path d="M62.4818 23.1187C61.4648 23.3795 59.2628 24.7326 57.3704 26.2537C55.9997 27.3635 53.979 29.2958 52.6658 30.7638C50.676 32.9835 48.7482 35.5083 47.0989 38.0464C46.4313 39.0766 46.1527 39.563 45.7017 40.4695C45.3259 41.23 45.2153 41.4909 44.8351 42.5256C44.5874 43.1977 44.3045 43.7902 44.0966 44.0776C43.9596 44.2677 42.7436 45.1609 42.1644 45.5014C41.3154 45.9966 39.8784 46.3503 39.5026 46.1558C39.2019 46.0054 39.1046 45.7224 39.1842 45.2626C39.3125 44.5021 39.6971 43.4585 40.4311 41.8844C40.6743 41.3582 40.8777 40.863 40.9087 40.6994C41.0236 40.1511 40.8202 39.5497 40.3869 39.1385C39.9669 38.7406 39.4009 38.577 38.6448 38.63C37.5748 38.7008 36.6772 39.1474 32.7729 41.5262C32.1273 41.9198 31.5923 42.2381 31.579 42.2381C31.5658 42.2381 31.4906 42.1232 31.411 41.9817C31.0838 41.398 30.6284 40.9514 30.173 40.7746C29.7971 40.6331 29.2842 40.6419 28.789 40.8011C27.8383 41.1062 23.5051 42.9633 21.3164 44.0068C20.1182 44.5772 19.6804 44.7718 19.6495 44.7452C19.6406 44.732 19.8087 44.4578 20.0253 44.1306C20.5338 43.3701 20.7107 43.0473 20.8522 42.614C20.9583 42.3089 20.9715 42.2072 20.9539 41.8623C20.9406 41.5174 20.9141 41.4245 20.7858 41.1548C20.3923 40.3589 19.5434 39.8946 18.491 39.8946C17.5094 39.8946 15.3605 40.3147 13.2912 40.9116C11.6242 41.3936 8.64848 42.5388 6.32713 43.5956C4.40372 44.4755 1.87455 45.8507 1.49429 46.2309C1.17593 46.5493 0.932744 47.27 1.01675 47.637C1.10961 48.0438 1.46776 48.4506 1.84802 48.5789C2.20617 48.7027 2.47147 48.6717 3.04628 48.4462C3.32927 48.3357 4.75745 47.6415 6.21659 46.9075C9.56376 45.2272 10.4039 44.8514 13.0038 43.8919C14.6088 43.2994 15.2588 43.0871 16.0768 42.8793C16.886 42.6759 17.2485 42.6096 17.2485 42.667C17.2485 42.6847 16.9877 43.0385 16.6649 43.4541C14.0163 46.8765 12.8667 48.402 12.7031 48.7159C12.6058 48.9017 12.5837 48.9945 12.5837 49.2908C12.5837 49.7374 12.6854 49.9761 13.0126 50.2989C13.5211 50.803 14.3966 51.0152 15.219 50.8428C15.9221 50.6924 16.3819 50.4316 19.1277 48.6231C22.1079 46.6599 23.3371 45.948 25.0085 45.2228C25.2782 45.1078 25.7071 44.9044 25.9724 44.7762C26.3615 44.5772 26.4632 44.5463 26.534 44.5816C26.618 44.6259 26.6401 44.6745 26.6268 44.7895C26.6224 44.816 26.4897 45.0636 26.3306 45.3422C25.7867 46.2928 25.4683 47.7255 25.6673 48.3268C25.8707 48.9326 26.7285 49.4632 27.3829 49.388C27.803 49.335 28.1081 49.1404 28.8376 48.4595C31.1634 46.2752 32.4501 45.2051 34.0949 44.0864C35.05 43.4364 36.4605 42.6007 36.5136 42.6538C36.5268 42.6626 36.4826 42.9589 36.4207 43.3082C36.1554 44.7541 36.067 45.9082 36.1687 46.4476C36.2925 47.0843 36.8054 47.8891 37.3714 48.3313C38.1805 48.9636 39.3478 49.3306 40.3073 49.251C41.143 49.1802 41.7045 48.9636 43.3803 48.0438C43.7827 47.8228 44.4946 47.4513 44.9589 47.2126C46.051 46.6554 45.9714 46.6599 47.0061 47.1197C48.7305 47.8891 49.5441 48.0483 51.7593 48.0527C53.4705 48.0527 54.6688 47.9377 56.15 47.6282C57.6755 47.3098 58.5642 46.9207 58.7986 46.4653C58.94 46.1911 58.8472 45.6296 58.5907 45.2095C58.3697 44.8469 57.8744 44.8072 56.5745 45.0415C54.7705 45.3687 53.8198 45.466 52.2015 45.4969C51.4056 45.5102 50.7733 45.5014 50.5345 45.4748C49.6635 45.3643 49.155 44.9133 49.3053 44.365C49.3716 44.1174 49.4822 43.998 49.8669 43.7592C51.2685 42.9014 52.9797 41.6191 54.3194 40.4297C55.1772 39.6647 57.3483 37.4892 58.2901 36.4457C61.2526 33.1648 63.3838 30.3084 64.4405 28.1992C65.0198 27.0407 65.4 25.8203 65.4 25.1261C65.4 24.8299 65.2674 24.286 65.1303 24.0119C64.6882 23.1319 63.711 22.8003 62.4818 23.1187ZM61.425 26.939C61.5665 27.0186 61.5223 27.1866 61.2393 27.6819C59.6608 30.4278 57.0741 33.5495 53.6208 36.8835C52.2059 38.2498 50.4682 39.8327 50.2118 39.9919C50.026 40.1025 49.6546 40.1025 49.5485 39.9831C49.3716 39.7841 49.522 39.4967 50.5124 38.1746C53.3069 34.4515 57.3748 30.0829 60.4876 27.4741C61.226 26.855 61.2437 26.8462 61.425 26.939Z" fill="#A256FF"/>
<path d="M66.9335 35.2962C64.2364 35.5526 61.8841 37.3921 61.0086 39.9257C60.7035 40.7968 60.646 41.1726 60.646 42.2383C60.6504 43.0474 60.6637 43.2508 60.7477 43.6222C61.0572 45.0239 61.6762 46.1647 62.6578 47.1464C63.6394 48.128 64.7802 48.7426 66.1819 49.0565C66.5533 49.1405 66.7523 49.1538 67.5658 49.1538C68.6138 49.1538 68.9542 49.1052 69.7855 48.8266C71.2712 48.3269 72.5844 47.3055 73.4378 45.9746C74.7112 44.0025 74.8748 41.376 73.8622 39.2536C73.0089 37.4584 71.4038 36.0965 69.4892 35.5394C68.7287 35.3183 67.7073 35.221 66.9335 35.2962ZM70.2365 38.3118C70.4134 38.5815 70.3559 39.0325 70.1215 39.2624C69.927 39.4482 69.8253 39.4835 69.2593 39.5454C68.7951 39.5941 66.9822 39.572 66.6815 39.5145C66.5666 39.488 66.5533 39.4968 66.5312 39.6339C66.487 39.9301 66.3764 40.9294 66.3853 40.9427C66.3941 40.9471 66.5268 40.9117 66.6815 40.8587C67.0795 40.7349 67.9549 40.7216 68.3396 40.841C69.5069 41.1947 70.2453 42.1366 70.2984 43.3437C70.3205 43.9008 70.2453 44.2678 70.0154 44.7542C69.7015 45.4042 68.9808 45.9436 68.207 46.1073C67.8046 46.1913 67.0352 46.1913 66.7125 46.1073C65.9652 45.9127 65.3064 45.3644 64.9438 44.6304C64.705 44.1573 64.6829 43.9671 64.8377 43.7416C65.0897 43.3658 65.6513 43.3127 65.9343 43.6355C65.9741 43.6842 66.0669 43.8389 66.1465 43.9848C66.3897 44.4491 66.5931 44.679 66.9026 44.8382C67.1679 44.9753 67.2165 44.9886 67.4995 44.9709C67.8842 44.9443 68.1583 44.825 68.4413 44.5641C68.7553 44.2722 68.91 43.9097 68.91 43.4675C68.91 43.1757 68.8879 43.0916 68.7641 42.8396C68.6049 42.508 68.3662 42.2825 68.008 42.11C67.809 42.0172 67.7029 41.9951 67.4332 41.9995C67.0131 41.9995 66.708 42.1189 66.3366 42.4151L66.0625 42.6362H65.4656C64.8908 42.6362 64.8686 42.6318 64.8686 42.5434C64.8686 42.4372 65.3462 38.5461 65.3771 38.4002L65.3992 38.3029L67.2254 38.2985C68.2247 38.2941 69.2151 38.2808 69.4229 38.2631C70.1127 38.2012 70.1658 38.2057 70.2365 38.3118Z" fill="#A256FF"/>
</svg>
