<svg width="75" height="75" viewBox="0 0 75 75" fill="none" xmlns="http://www.w3.org/2000/svg">
<path d="M13.1498 0H61.1077C68.3787 0 74.2574 6.02945 74.2574 13.4869V60.7705C74.2574 68.228 68.3787 74.2574 61.1077 74.2574H13.1498C5.87871 74.2574 0 68.228 0 60.7705V13.4869C0 6.02945 5.87871 0 13.1498 0Z" fill="#001E36"/>
<path d="M16.7075 50.774V18.9361C16.7075 18.7196 16.8003 18.5958 17.0169 18.5958C17.5429 18.5958 18.038 18.5958 18.7496 18.5649C19.4922 18.5339 20.2657 18.5339 21.1011 18.503C21.9365 18.472 22.8338 18.472 23.7929 18.4411C24.7521 18.4102 25.6803 18.4102 26.6085 18.4102C29.1456 18.4102 31.2496 18.7196 32.9823 19.3693C34.5293 19.8953 35.9526 20.7616 37.1283 21.9064C38.1184 22.8965 38.8919 24.1032 39.387 25.4337C39.8511 26.7332 40.0986 28.0636 40.0986 29.4559C40.0986 32.1168 39.4798 34.3136 38.2422 36.0463C37.0045 37.779 35.2719 39.0785 33.2607 39.821C31.1568 40.5946 28.8362 40.873 26.2991 40.873C25.5565 40.873 25.0615 40.873 24.7521 40.8421C24.4427 40.8111 24.0095 40.8111 23.4216 40.8111V50.7431C23.4526 50.9597 23.2979 51.1453 23.0813 51.1762C23.0503 51.1762 23.0194 51.1762 22.9575 51.1762H17.0788C16.8313 51.1762 16.7075 51.0525 16.7075 50.774ZM23.4526 24.5673V34.9634C23.8857 34.9943 24.288 35.0253 24.6593 35.0253H26.2991C27.5058 35.0253 28.7125 34.8396 29.8573 34.4683C30.8474 34.1899 31.7137 33.602 32.3944 32.8285C33.0442 32.055 33.3536 31.003 33.3536 29.6416C33.3845 28.6824 33.137 27.7233 32.6419 26.8879C32.1159 26.0834 31.3734 25.4646 30.4761 25.1243C29.3313 24.6602 28.0937 24.4745 26.8251 24.5055C26.0206 24.5055 25.309 24.5055 24.7211 24.5364C24.1023 24.5055 23.6692 24.5364 23.4526 24.5673Z" fill="#31A8FF"/>
<path d="M59.4055 33.076C58.4773 32.5809 57.4872 32.2406 56.4352 32.024C55.2904 31.7765 54.1456 31.6218 52.9699 31.6218C52.3511 31.5908 51.7013 31.6837 51.1135 31.8384C50.7112 31.9312 50.3709 32.1478 50.1543 32.4572C49.9996 32.7047 49.9068 33.0141 49.9068 33.2926C49.9068 33.571 50.0305 33.8495 50.2162 34.097C50.4946 34.4374 50.8659 34.7158 51.2682 34.9324C51.9798 35.3037 52.7224 35.6441 53.4649 35.9535C55.1357 36.5104 56.7446 37.2839 58.2298 38.2121C59.2508 38.8619 60.0862 39.7282 60.6741 40.7802C61.1692 41.7703 61.4167 42.8532 61.3857 43.9671C61.4167 45.4213 60.9835 46.8755 60.1791 48.0822C59.3127 49.3198 58.106 50.279 56.7137 50.8359C55.1976 51.4856 53.3412 51.826 51.1135 51.826C49.6902 51.826 48.2979 51.7022 46.9055 51.4238C45.8226 51.2381 44.7397 50.8978 43.7496 50.4337C43.533 50.3099 43.3783 50.0933 43.4093 49.8458V44.4621C43.4093 44.3693 43.4402 44.2456 43.533 44.1837C43.6258 44.1218 43.7187 44.1527 43.8115 44.2146C45.0182 44.9262 46.2867 45.4213 47.6481 45.7307C48.8239 46.0401 50.0615 46.1948 51.2991 46.1948C52.4748 46.1948 53.3102 46.0401 53.8672 45.7616C54.3622 45.5451 54.7026 45.0191 54.7026 44.4621C54.7026 44.029 54.455 43.6267 53.96 43.2245C53.4649 42.8223 52.4439 42.3582 50.9278 41.7703C49.3498 41.2134 47.8956 40.4708 46.5342 39.5426C45.5751 38.8619 44.7706 37.9646 44.1828 36.9126C43.6877 35.9225 43.4402 34.8396 43.4711 33.7567C43.4711 32.4262 43.8424 31.1577 44.5231 30.0129C45.2966 28.7753 46.4414 27.7852 47.7719 27.1663C49.2261 26.4238 51.0516 26.0834 53.2484 26.0834C54.5169 26.0834 55.8164 26.1762 57.085 26.3619C58.0132 26.4857 58.9105 26.7332 59.7459 27.0735C59.8696 27.1045 59.9934 27.2282 60.0553 27.352C60.0862 27.4758 60.1172 27.5995 60.1172 27.7233V32.7666C60.1172 32.8904 60.0553 33.0141 59.9625 33.076C59.684 33.1379 59.5293 33.1379 59.4055 33.076Z" fill="#31A8FF"/>
</svg>
