<svg width="75" height="75" viewBox="0 0 75 75" fill="none" xmlns="http://www.w3.org/2000/svg">
<mask id="mask0_124_3699" style="mask-type:luminance" maskUnits="userSpaceOnUse" x="1" y="19" width="73" height="39">
<path d="M1.50195 38.0949C1.50195 48.5536 17.6201 57.0322 37.502 57.0322C57.3839 57.0322 73.5021 48.5536 73.5021 38.0949C73.5021 27.6363 57.3839 19.1575 37.502 19.1575C17.6201 19.1575 1.50195 27.6363 1.50195 38.0949Z" fill="white"/>
</mask>
<g mask="url(#mask0_124_3699)">
<path d="M1.50293 38.0953C1.50293 48.5541 17.621 57.0327 37.5029 57.0327C57.3848 57.0327 73.5031 48.5541 73.5031 38.0953C73.5031 27.6368 57.3848 19.158 37.5029 19.158C17.621 19.158 1.50293 27.6368 1.50293 38.0953Z" fill="url(#paint0_radial_124_3699)"/>
</g>
<mask id="mask1_124_3699" style="mask-type:luminance" maskUnits="userSpaceOnUse" x="0" y="17" width="75" height="43">
<path d="M0 17H75V59.1875H0V17Z" fill="white"/>
</mask>
<g mask="url(#mask1_124_3699)">
<path d="M37.5019 55.6255C56.6073 55.6255 72.0957 47.7764 72.0957 38.0941C72.0957 28.4119 56.6073 20.5627 37.5019 20.5627C18.3966 20.5627 2.9082 28.4119 2.9082 38.0941C2.9082 47.7764 18.3966 55.6255 37.5019 55.6255Z" fill="#777BB3"/>
</g>
<mask id="mask2_124_3699" style="mask-type:luminance" maskUnits="userSpaceOnUse" x="0" y="17" width="75" height="43">
<path d="M0 17H75V59.1875H0V17Z" fill="white"/>
</mask>
<g mask="url(#mask2_124_3699)">
<path d="M21.0584 40.2663C22.6294 40.2663 23.8021 39.9766 24.5442 39.4055C25.2783 38.8402 25.7853 37.8609 26.0511 36.4949C26.2989 35.2181 26.2045 34.3266 25.7706 33.8454C25.327 33.354 24.3679 33.1048 22.92 33.1048H20.4094L19.0176 40.2663H21.0584ZM12.8471 49.0879C12.7305 49.0879 12.6198 49.0358 12.5458 48.9457C12.4715 48.8557 12.4415 48.7372 12.4637 48.6228L16.1523 29.6448C16.1879 29.4613 16.3488 29.3288 16.5357 29.3288H24.4855C26.9839 29.3288 28.8435 30.0072 30.0124 31.3453C31.1876 32.6905 31.5504 34.5708 31.0909 36.934C30.904 37.8967 30.5823 38.7909 30.1351 39.5914C29.6873 40.3928 29.0955 41.1344 28.3758 41.7958C27.5144 42.6021 26.5394 43.1867 25.4805 43.5307C24.4385 43.8702 23.1002 44.0423 21.5029 44.0423H18.2839L17.3646 48.7717C17.329 48.9553 17.1683 49.0879 16.9813 49.0879H12.8471Z" fill="black"/>
<path d="M20.7315 33.4959H22.92C24.6675 33.4959 25.2746 33.8794 25.4808 34.1079C25.823 34.4873 25.8876 35.2873 25.6677 36.4213C25.4205 37.6909 24.9624 38.591 24.3059 39.0965C23.6338 39.6139 22.5411 39.8761 21.0584 39.8761H19.4915L20.7315 33.4959ZM24.4855 28.9386H16.5356C16.1617 28.9386 15.8402 29.2037 15.7688 29.5708L12.0803 48.5488C12.0358 48.7778 12.0959 49.0147 12.2442 49.1948C12.3927 49.3748 12.6138 49.479 12.8471 49.479H16.9812C17.3553 49.479 17.6768 49.2139 17.7481 48.8468L18.6059 44.4334H21.5029C23.1412 44.4334 24.5204 44.2548 25.6018 43.9026C26.7139 43.5412 27.7371 42.9286 28.6427 42.0817C29.3916 41.3927 30.0085 40.6192 30.476 39.7826C30.9436 38.9458 31.2795 38.0126 31.4744 37.009C31.9582 34.5215 31.5652 32.5295 30.3066 31.0889C29.0602 29.6621 27.1016 28.9386 24.4855 28.9386ZM18.5437 40.6574H21.0584C22.7252 40.6574 23.9667 40.3435 24.7825 39.7155C25.5984 39.0873 26.1486 38.039 26.4346 36.57C26.7082 35.1596 26.5835 34.1643 26.0608 33.5845C25.5373 33.0047 24.4906 32.7147 22.92 32.7147H20.0874L18.5437 40.6574ZM24.4855 29.7199C26.877 29.7199 28.6217 30.3475 29.7183 31.6028C30.8148 32.8582 31.145 34.6104 30.7075 36.86C30.5274 37.7867 30.2229 38.634 29.7941 39.4015C29.3648 40.1696 28.8042 40.872 28.1115 41.5088C27.286 42.2813 26.369 42.8319 25.3598 43.1597C24.3507 43.4885 23.0654 43.6522 21.5029 43.6522H17.9618L16.9812 48.6978H12.8471L16.5356 29.7199H24.4855Z" fill="white"/>
<path d="M40.5705 44.0425C40.4538 44.0425 40.3433 43.9904 40.2692 43.9003C40.1948 43.8103 40.1648 43.692 40.187 43.5774L41.8187 35.1804C41.9739 34.3818 41.9356 33.8086 41.711 33.5664C41.5735 33.4184 41.1605 33.1701 39.9392 33.1701H36.9833L34.9318 43.7263C34.8961 43.9099 34.7353 44.0425 34.5484 44.0425H30.4468C30.3301 44.0425 30.2196 43.9904 30.1454 43.9003C30.0711 43.8103 30.0411 43.6918 30.0633 43.5774L33.7519 24.5994C33.7876 24.4159 33.9484 24.2834 34.1353 24.2834H38.2369C38.3536 24.2834 38.4641 24.3355 38.5383 24.4254C38.6126 24.5155 38.6426 24.6339 38.6204 24.7485L37.7303 29.3289H40.9102C43.3327 29.3289 44.9754 29.756 45.9322 30.6347C46.9075 31.531 47.2118 32.9642 46.8368 34.895L45.1206 43.7263C45.085 43.9099 44.9243 44.0425 44.7372 44.0425H40.5705Z" fill="black"/>
<path d="M38.2374 23.8932H34.1359C33.7618 23.8932 33.4403 24.1583 33.3689 24.5254L29.6804 43.5034C29.6359 43.7324 29.696 43.9693 29.8444 44.1493C29.9929 44.3294 30.214 44.4336 30.4473 44.4336H34.5489C34.9228 44.4336 35.2444 44.1685 35.3158 43.8014L37.3058 33.5612H39.9398C41.1589 33.5612 41.4148 33.8216 41.425 33.8328C41.499 33.9124 41.5963 34.2809 41.4357 35.1064L39.8041 43.5034C39.7596 43.7324 39.8197 43.9693 39.9681 44.1493C40.1166 44.3294 40.3377 44.4336 40.571 44.4336H44.7377C45.1116 44.4336 45.4332 44.1685 45.5046 43.8014L47.2206 34.9701C47.6234 32.897 47.2788 31.3419 46.1971 30.3477C45.1648 29.3996 43.4356 28.9388 40.9107 28.9388H38.2045L39.0043 24.8236C39.0487 24.5945 38.9887 24.3576 38.8403 24.1776C38.6918 23.9975 38.4707 23.8932 38.2374 23.8932ZM38.2374 24.6745L37.2568 29.7201H40.9107C43.2098 29.7201 44.7956 30.1214 45.6684 30.9229C46.5412 31.725 46.8027 33.0246 46.4538 34.8211L44.7377 43.6523H40.571L42.2027 35.2555C42.3883 34.3003 42.3201 33.6487 41.9977 33.3013C41.6752 32.9539 40.9891 32.7799 39.9398 32.7799H36.6616L34.5489 43.6523H30.4473L34.1359 24.6745H38.2374Z" fill="white"/>
<path d="M53.3274 40.2663C54.8984 40.2663 56.0712 39.9766 56.8132 39.4055C57.5473 38.8404 58.0544 37.8611 58.3203 36.4949C58.568 35.2181 58.4736 34.3266 58.0397 33.8454C57.596 33.354 56.6369 33.1048 55.189 33.1048H52.6785L51.2867 40.2663H53.3274ZM45.1162 49.0879C44.9997 49.0879 44.889 49.0358 44.8149 48.9457C44.7407 48.8557 44.7105 48.7372 44.7328 48.6228L48.4213 29.6448C48.4571 29.4613 48.6178 29.3288 48.8049 29.3288H56.7545C59.2531 29.3288 61.1126 30.0072 62.2816 31.3453C63.4567 32.6904 63.8195 34.5707 63.3601 36.934C63.1729 37.8967 62.8514 38.7909 62.4041 39.5914C61.9563 40.3928 61.3645 41.1344 60.6449 41.7958C59.7834 42.6021 58.8084 43.1867 57.7496 43.5307C56.7075 43.8702 55.3692 44.0423 53.7719 44.0423H50.5528L49.6339 48.7717C49.5981 48.9553 49.4374 49.0879 49.2503 49.0879H45.1162Z" fill="black"/>
<path d="M52.9989 33.4959H55.1874C56.935 33.4959 57.542 33.8794 57.7483 34.1079C58.0906 34.4873 58.1552 35.2873 57.9351 36.4212C57.688 37.6909 57.2298 38.591 56.5734 39.0965C55.9013 39.6139 54.8085 39.8761 53.3259 39.8761H51.7591L52.9989 33.4959ZM56.7529 28.9386H48.8032C48.4292 28.9386 48.1078 29.2037 48.0364 29.5708L44.3479 48.5488C44.3033 48.7778 44.3635 49.0147 44.5118 49.1948C44.6602 49.3748 44.8813 49.479 45.1147 49.479H49.2488C49.6227 49.479 49.9444 49.2139 50.0157 48.8468L50.8734 44.4334H53.7704C55.4087 44.4334 56.7878 44.2548 57.8692 43.9026C58.9813 43.5412 60.0048 42.9285 60.9104 42.0815C61.6593 41.3925 62.276 40.6192 62.7434 39.7826C63.211 38.9458 63.547 38.0126 63.7419 37.009C64.2256 34.5213 63.8326 32.5294 62.574 31.0888C61.3277 29.6621 59.3692 28.9386 56.7529 28.9386ZM50.8113 40.6574H53.3259C54.9927 40.6574 56.2342 40.3435 57.0499 39.7155C57.866 39.0873 58.4161 38.039 58.702 36.57C58.9757 35.1596 58.8511 34.1643 58.3282 33.5845C57.8048 33.0047 56.758 32.7147 55.1874 32.7147H52.3549L50.8113 40.6574ZM56.7529 29.7199C59.1445 29.7199 60.8891 30.3475 61.9858 31.6028C63.0824 32.8582 63.4124 34.6104 62.9749 36.86C62.7949 37.7867 62.4903 38.634 62.0615 39.4015C61.6322 40.1696 61.0717 40.872 60.379 41.5088C59.5535 42.2813 58.6364 42.8319 57.6273 43.1597C56.6182 43.4885 55.3329 43.6522 53.7704 43.6522H50.2292L49.2488 48.6978H45.1147L48.8032 29.7199H56.7529Z" fill="white"/>
</g>
<defs>
<radialGradient id="paint0_radial_124_3699" cx="0" cy="0" r="1" gradientUnits="userSpaceOnUse" gradientTransform="translate(23.1175 25.8158) scale(47.2732 47.2732)">
<stop stop-color="#AEB2D5"/>
<stop offset="0.3" stop-color="#AEB2D5"/>
<stop offset="0.75" stop-color="#484C89"/>
<stop offset="1" stop-color="#484C89"/>
</radialGradient>
</defs>
</svg>
