<svg width="75" height="75" viewBox="0 0 75 75" fill="none" xmlns="http://www.w3.org/2000/svg">
<path d="M74.2574 37.0707C74.2574 32.1517 68.0971 27.49 58.6522 24.5992C60.8318 14.9731 59.8631 7.31464 55.5947 4.86271C54.6108 4.28757 53.4605 4.01514 52.2042 4.01514V7.39031C52.9005 7.39031 53.4605 7.52653 53.9297 7.78383C55.9882 8.96439 56.8813 13.4596 56.185 19.2413C56.0185 20.664 55.7461 22.1624 55.4131 23.6911C52.4464 22.9646 49.2073 22.4046 45.8017 22.0413C43.7583 19.2413 41.6393 16.6985 39.5051 14.4736C44.4394 9.88764 49.0711 7.37518 52.2194 7.37518V4C48.0569 4 42.608 6.96652 37.0984 12.1125C31.5889 6.9968 26.1399 4.06054 21.9775 4.06054V7.43572C25.1107 7.43572 29.7575 9.93305 34.6918 14.4888C32.5728 16.7137 30.4537 19.2413 28.4406 22.0413C25.0199 22.4046 21.7808 22.9646 18.8141 23.7062C18.466 22.1927 18.2087 20.7245 18.027 19.3169C17.3156 13.5353 18.1935 9.04006 20.2369 7.84437C20.691 7.57194 21.2813 7.45085 21.9775 7.45085V4.07568C20.7061 4.07568 19.5558 4.34811 18.5568 4.92325C14.3036 7.37518 13.35 15.0185 15.5447 24.6143C6.1301 27.5203 0 32.1668 0 37.0707C0 41.9897 6.16037 46.6513 15.6053 49.5422C13.4257 59.1683 14.3944 66.8267 18.6627 69.2786C19.6466 69.8538 20.7969 70.1262 22.0684 70.1262C26.2308 70.1262 31.6797 67.1597 37.1893 62.0137C42.6988 67.1294 48.1478 70.0657 52.3102 70.0657C53.5816 70.0657 54.7319 69.7933 55.7309 69.2181C59.9841 66.7662 60.9377 59.1228 58.743 49.5271C68.1273 46.6362 74.2574 41.9745 74.2574 37.0707ZM54.5503 26.9754C53.9903 28.9279 53.294 30.9409 52.5069 32.9539C51.8864 31.743 51.2355 30.5322 50.5241 29.3214C49.8279 28.1106 49.0862 26.93 48.3445 25.7797C50.4939 26.0976 52.5675 26.4911 54.5503 26.9754ZM47.618 43.0945C46.4374 45.1378 45.2265 47.0751 43.9702 48.8762C41.7149 49.073 39.4294 49.1789 37.1287 49.1789C34.8432 49.1789 32.5576 49.073 30.3175 48.8914C29.0612 47.0903 27.8352 45.1681 26.6546 43.1399C25.5042 41.1572 24.4599 39.1442 23.5063 37.1161C24.4447 35.088 25.5042 33.0598 26.6394 31.0771C27.8201 29.0338 29.0309 27.0965 30.2872 25.2954C32.5425 25.0986 34.828 24.9927 37.1287 24.9927C39.4143 24.9927 41.6998 25.0986 43.9399 25.2803C45.1962 27.0814 46.4222 29.0036 47.6029 31.0317C48.7532 33.0144 49.7976 35.0274 50.7512 37.0555C49.7976 39.0837 48.7532 41.1118 47.618 43.0945ZM52.5069 41.1269C53.3243 43.1551 54.0205 45.1832 54.5957 47.1508C52.6129 47.6351 50.5241 48.0438 48.3597 48.3616C49.1013 47.1962 49.843 46.0005 50.5393 44.7746C51.2355 43.5637 51.8864 42.3378 52.5069 41.1269ZM37.159 57.2763C35.7513 55.8233 34.3437 54.2039 32.9512 52.433C34.3134 52.4936 35.7059 52.539 37.1136 52.539C38.5364 52.539 39.944 52.5087 41.3214 52.433C39.9592 54.2039 38.5515 55.8233 37.159 57.2763ZM25.8978 48.3616C23.7485 48.0438 21.6748 47.6503 19.692 47.1659C20.252 45.2135 20.9483 43.2005 21.7354 41.1875C22.3559 42.3983 23.0068 43.6091 23.7182 44.82C24.4296 46.0308 25.1561 47.2113 25.8978 48.3616ZM37.0833 16.865C38.491 18.318 39.8986 19.9375 41.2911 21.7083C39.9289 21.6478 38.5364 21.6024 37.1287 21.6024C35.7059 21.6024 34.2983 21.6327 32.9209 21.7083C34.2831 19.9375 35.6908 18.318 37.0833 16.865ZM25.8826 25.7797C25.141 26.9452 24.3993 28.1408 23.703 29.3668C23.0068 30.5776 22.3559 31.7885 21.7354 32.9993C20.918 30.9711 20.2218 28.943 19.6466 26.9754C21.6294 26.5062 23.7182 26.0976 25.8826 25.7797ZM12.1845 44.7292C6.82636 42.4437 3.3602 39.4469 3.3602 37.0707C3.3602 34.6944 6.82636 31.6825 12.1845 29.4122C13.4862 28.8522 14.909 28.3527 16.3772 27.8835C17.24 30.8501 18.3752 33.9377 19.7828 37.101C18.3903 40.2491 17.2702 43.3216 16.4226 46.273C14.9241 45.8038 13.5014 45.2892 12.1845 44.7292ZM20.3277 66.3575C18.2692 65.177 17.3762 60.6818 18.0724 54.9001C18.2389 53.4774 18.5114 51.979 18.8444 50.4503C21.811 51.1768 25.0502 51.7368 28.4558 52.1001C30.4991 54.9001 32.6182 57.4428 34.7524 59.6677C29.818 64.2537 25.1864 66.7662 22.0381 66.7662C21.357 66.7511 20.7818 66.6148 20.3277 66.3575ZM56.2304 54.8244C56.9418 60.6061 56.0639 65.1013 54.0205 66.297C53.5665 66.5694 52.9762 66.6905 52.2799 66.6905C49.1467 66.6905 44.5 64.1932 39.5656 59.6375C41.6847 57.4126 43.8037 54.885 45.8168 52.0849C49.2376 51.7217 52.4767 51.1617 55.4433 50.42C55.7915 51.9487 56.0639 53.4168 56.2304 54.8244ZM62.0578 44.7292C60.7561 45.2892 59.3333 45.7886 57.8651 46.2578C57.0023 43.2913 55.8671 40.2037 54.4595 37.0404C55.852 33.8923 56.9721 30.8198 57.8197 27.8684C59.3182 28.3376 60.7409 28.8522 62.0729 29.4122C67.4311 31.6976 70.8972 34.6944 70.8972 37.0707C70.8821 39.4469 67.4159 42.4589 62.0578 44.7292Z" fill="#61DAFB"/>
<path d="M37.113 43.987C40.9332 43.987 44.0301 40.8902 44.0301 37.0702C44.0301 33.2501 40.9332 30.1533 37.113 30.1533C33.2927 30.1533 30.1958 33.2501 30.1958 37.0702C30.1958 40.8902 33.2927 43.987 37.113 43.987Z" fill="#61DAFB"/>
</svg>
