<svg width="75" height="75" viewBox="0 0 75 75" fill="none" xmlns="http://www.w3.org/2000/svg">
<path fill-rule="evenodd" clip-rule="evenodd" d="M49.3985 50.8877V27.0943C49.3984 26.6874 49.2346 26.2972 48.943 26.0095C48.6514 25.7218 48.256 25.5602 47.8437 25.5602H23.7622V1H72.7028C72.907 0.99996 73.1092 1.03962 73.2979 1.11671C73.4865 1.1938 73.658 1.30681 73.8024 1.44929C73.9468 1.59178 74.0613 1.76094 74.1395 1.94711C74.2176 2.13329 74.2579 2.33283 74.2579 2.53435V50.8877H49.3985Z" fill="#8E75FF"/>
<path opacity="0.405" fill-rule="evenodd" clip-rule="evenodd" d="M23.7613 1V25.5602H0.777315C0.623603 25.5602 0.473351 25.5152 0.345546 25.4309C0.21774 25.3466 0.118114 25.2268 0.059257 25.0867C0.000399889 24.9466 -0.0150479 24.7923 0.0148655 24.6436C0.0447789 24.4948 0.118711 24.358 0.227321 24.2507L23.7613 1ZM49.3976 73.5941V50.8877H74.257L50.7248 74.1363C50.6161 74.2436 50.4776 74.3166 50.3268 74.3462C50.1761 74.3758 50.0198 74.3606 49.8778 74.3026C49.7357 74.2446 49.6143 74.1463 49.5288 74.0202C49.4434 73.8941 49.3977 73.7459 49.3976 73.5941ZM23.7613 25.5602H48.6201C48.8262 25.5602 49.024 25.641 49.1698 25.7848C49.3156 25.9287 49.3975 26.1238 49.3976 26.3272V50.8877H25.3161C25.1119 50.8877 24.9097 50.848 24.7211 50.7709C24.5325 50.6938 24.3611 50.5808 24.2167 50.4383C24.0723 50.2959 23.9578 50.1267 23.8797 49.9406C23.8015 49.7544 23.7613 49.5549 23.7613 49.3534V25.5602Z" fill="#8E75FF"/>
</svg>
